<?xml version="1.0" encoding="UTF-8"?>
<!DOCTYPE svg PUBLIC "-//W3C//DTD SVG 1.1//EN" "http://www.w3.org/Graphics/SVG/1.1/DTD/svg11.dtd">
<svg xmlns="http://www.w3.org/2000/svg" version="1.1" width="1000px" height="1060px" style="shape-rendering:geometricPrecision; text-rendering:geometricPrecision; image-rendering:optimizeQuality; fill-rule:evenodd; clip-rule:evenodd" xmlns:xlink="http://www.w3.org/1999/xlink">
<g><path style="opacity:1" fill="#000000" d="M -0.5,-0.5 C 332.833,-0.5 666.167,-0.5 999.5,-0.5C 999.5,352.833 999.5,706.167 999.5,1059.5C 666.167,1059.5 332.833,1059.5 -0.5,1059.5C -0.5,706.167 -0.5,352.833 -0.5,-0.5 Z"/></g>
<g><path style="opacity:1" fill="#fdfdfe" d="M 460.5,32.5 C 581.868,28.0126 699.202,47.5126 812.5,91C 883.088,119.921 932.588,169.754 961,240.5C 974.115,276.736 979.448,314.07 977,352.5C 968.171,455.813 945.171,555.813 908,652.5C 874.058,737.692 825.724,813.359 763,879.5C 692.287,950.47 608.787,1000.97 512.5,1031C 499.738,1033.78 487.405,1032.45 475.5,1027C 346.646,982.7 243.813,904.533 167,792.5C 135.504,745.179 109.504,694.846 89,641.5C 52.0575,542.898 30.2242,441.065 23.5,336C 24.3549,245.953 60.6883,174.286 132.5,121C 149.608,108.925 167.941,98.9252 187.5,91C 275.429,56.5825 366.429,37.0825 460.5,32.5 Z"/></g>
<g><path style="opacity:1" fill="#cfcfcf" d="M 465.5,141.5 C 576.862,137.051 684.862,153.885 789.5,192C 813.189,199.707 832.356,213.54 847,233.5C 855.023,244.876 862.023,256.876 868,269.5C 873.041,284.581 875.541,300.081 875.5,316C 869.943,424.459 846.776,528.959 806,629.5C 773.444,704.698 727.611,770.532 668.5,827C 638.12,853.696 605.12,876.696 569.5,896C 548.9,906.755 527.567,915.755 505.5,923C 498.976,924.011 492.643,923.345 486.5,921C 450.526,905.849 416.192,887.849 383.5,867C 314.068,818.241 259.568,756.407 220,681.5C 175.729,594.104 147.063,501.771 134,404.5C 128.141,367.342 125.808,330.008 127,292.5C 136.801,247.034 162.635,214.201 204.5,194C 288.913,162.974 375.913,145.474 465.5,141.5 Z"/></g>
<g><path style="opacity:0.999" fill="#000000" d="M 427.5,350.5 C 444.17,350.333 460.837,350.5 477.5,351C 478,351.5 478.5,352 479,352.5C 479.333,372.167 479.667,391.833 480,411.5C 480.374,412.416 480.874,413.25 481.5,414C 531.108,415.32 580.775,415.986 630.5,416C 639.483,421.127 641.65,428.294 637,437.5C 615.739,462.758 595.239,488.591 575.5,515C 610.498,527.999 632.998,552.499 643,588.5C 651.678,630.127 640.511,665.293 609.5,694C 581.766,715.346 551.432,720.012 518.5,708C 499.597,699.431 484.764,686.265 474,668.5C 470.111,650.275 477.278,639.275 495.5,635.5C 513.828,637.141 521.995,647.141 520,665.5C 519.215,668.529 518.049,671.362 516.5,674C 547.811,693.86 575.977,690.026 601,662.5C 623.564,629.364 622.897,596.697 599,564.5C 590.853,554.843 580.687,548.343 568.5,545C 558.58,543.255 548.58,542.255 538.5,542C 536.051,541.275 533.717,540.275 531.5,539C 529.766,534.051 530.599,529.551 534,525.5C 553.439,500.729 572.105,475.396 590,449.5C 591.042,446.196 589.875,444.029 586.5,443C 551.819,442.14 517.152,442.473 482.5,444C 482,444.5 481.5,445 481,445.5C 479.844,466.58 479.344,487.747 479.5,509C 479.36,531.207 479.86,553.374 481,575.5C 484.803,580.611 489.969,582.944 496.5,582.5C 505.071,581.774 513.404,579.941 521.5,577C 536.903,574.749 544.403,581.249 544,596.5C 542.718,602.113 539.551,606.28 534.5,609C 521.723,613.482 508.723,617.148 495.5,620C 474.019,622.172 456.853,614.672 444,597.5C 440.608,590.214 438.608,582.547 438,574.5C 436.718,532.19 436.051,489.857 436,447.5C 435.5,445.667 434.333,444.5 432.5,444C 416.5,443.667 400.5,443.333 384.5,443C 382.667,442.5 381.5,441.333 381,439.5C 380.333,432.833 380.333,426.167 381,419.5C 382.167,418.333 383.333,417.167 384.5,416C 400.167,415.667 415.833,415.333 431.5,415C 432.766,414.691 433.933,414.191 435,413.5C 436.615,403.6 436.949,393.6 436,383.5C 435.215,381.714 434.049,380.214 432.5,379C 427.449,377.283 424.615,373.783 424,368.5C 422.54,361.845 423.707,355.845 427.5,350.5 Z"/></g>
</svg>
