<svg version="1.1" id="Layer_1" xmlns="http://www.w3.org/2000/svg" xmlns:xlink="http://www.w3.org/1999/xlink" x="0px" y="0px"
	 width="100%" viewBox="0 0 512 521" enable-background="new 0 0 512 521" xml:space="preserve">
<path fill="#000000" opacity="1.000000" stroke="none" 
	d="
M286.000000,522.000000 
	C190.689606,522.000000 95.879196,522.000000 1.034398,522.000000 
	C1.034398,348.398254 1.034398,174.796524 1.034398,1.097391 
	C171.560410,1.097391 342.120911,1.097391 512.840698,1.097391 
	C512.840698,174.666550 512.840698,348.333252 512.840698,522.000000 
	C437.463135,522.000000 361.981567,522.000000 286.000000,522.000000 
M57.061447,329.714478 
	C79.006111,374.966858 109.289879,413.610229 148.687668,444.966370 
	C180.736801,470.473785 216.324295,489.379974 255.480072,501.473206 
	C256.824158,501.888367 258.503326,501.218567 260.806427,500.989868 
	C281.068420,494.746277 300.452881,486.466003 319.080811,476.325195 
	C356.866730,455.755066 389.374176,428.805084 416.481598,395.463776 
	C439.169678,367.558044 456.807892,336.694733 469.424072,302.944946 
	C482.099762,269.035950 488.532318,233.944733 489.846436,197.879425 
	C490.718933,173.933578 487.958527,150.232834 483.774506,126.700325 
	C483.017822,122.444496 482.564514,116.819252 479.757721,114.463966 
	C465.173584,102.225830 450.498688,89.903969 434.692535,79.353348 
	C400.271790,56.377495 362.254639,41.523869 321.666931,33.545876 
	C310.869843,31.423580 299.796143,30.708485 288.141724,28.876167 
	C272.799500,28.587049 257.458405,28.178181 242.114807,28.039312 
	C223.195724,27.868088 204.656677,31.096430 186.271591,35.108387 
	C160.068649,40.826340 135.062378,49.953098 111.066109,61.975246 
	C83.936302,75.567307 59.396118,92.848755 36.893200,113.103401 
	C35.358234,114.485001 33.623085,116.332527 33.251110,118.214417 
	C27.864410,145.466888 24.508375,172.836960 25.798143,200.793839 
	C26.721851,220.816040 28.860687,240.586624 33.147289,260.088440 
	C38.393734,283.957001 46.002975,307.084320 57.061447,329.714478 
z"/>
<path fill="#A6A5A6" opacity="1.000000" stroke="none" 
	d="
M288.849457,29.347303 
	C299.796143,30.708485 310.869843,31.423580 321.666931,33.545876 
	C362.254639,41.523869 400.271790,56.377495 434.692535,79.353348 
	C450.498688,89.903969 465.173584,102.225830 479.757721,114.463966 
	C482.564514,116.819252 483.017822,122.444496 483.774506,126.700325 
	C487.958527,150.232834 490.718933,173.933578 489.846436,197.879425 
	C488.532318,233.944733 482.099762,269.035950 469.424072,302.944946 
	C456.807892,336.694733 439.169678,367.558044 416.481598,395.463776 
	C389.374176,428.805084 356.866730,455.755066 319.080811,476.325195 
	C300.452881,486.466003 281.068420,494.746277 260.547211,500.712585 
	C263.658173,496.336365 267.065002,492.266937 270.392761,488.133850 
	C297.834778,454.050354 318.541290,416.226959 333.061340,374.990417 
	C333.701691,373.171906 333.669067,371.116394 334.287292,368.990234 
	C343.698364,342.700134 349.292297,315.860229 352.153900,288.370575 
	C354.623413,264.647308 354.718079,240.963791 353.177765,217.183746 
	C351.666443,193.851135 347.541351,170.985184 341.729065,148.428452 
	C339.125275,138.323395 335.210205,128.556244 331.931885,118.250229 
	C331.653900,116.268394 331.542755,114.594757 330.983734,113.087219 
	C320.725769,85.425323 307.441162,59.289333 291.336365,34.573769 
	C290.292450,32.971676 289.668671,31.095812 288.849457,29.347303 
z"/>
<path fill="#FEFEFE" opacity="1.000000" stroke="none" 
	d="
M288.495605,29.111736 
	C289.668671,31.095812 290.292450,32.971676 291.336365,34.573769 
	C307.441162,59.289333 320.725769,85.425323 330.983734,113.087219 
	C331.542755,114.594757 331.653900,116.268394 331.536377,118.367065 
	C330.434692,118.905045 329.749054,118.846375 329.108704,118.989830 
	C298.994568,125.736366 269.890594,135.458923 242.091324,148.907043 
	C193.501572,172.412720 151.202545,204.233307 115.356430,244.998688 
	C114.744118,245.206909 114.390305,245.314880 114.183167,245.551315 
	C92.944168,269.797577 74.879044,296.188354 60.391991,325.011993 
	C59.635090,326.517914 58.171265,327.668549 57.036564,328.984589 
	C46.002975,307.084320 38.393734,283.957001 33.147289,260.088440 
	C28.860687,240.586624 26.721851,220.816040 25.798143,200.793839 
	C24.508375,172.836960 27.864410,145.466888 33.251110,118.214417 
	C33.623085,116.332527 35.358234,114.485001 36.893200,113.103401 
	C59.396118,92.848755 83.936302,75.567307 111.066109,61.975246 
	C135.062378,49.953098 160.068649,40.826340 186.271591,35.108387 
	C204.656677,31.096430 223.195724,27.868088 242.114807,28.039312 
	C257.458405,28.178181 272.799500,28.587049 288.495605,29.111736 
z"/>
<path fill="#DBDBDB" opacity="1.000000" stroke="none" 
	d="
M57.049004,329.349548 
	C58.171265,327.668549 59.635090,326.517914 60.391991,325.011993 
	C74.879044,296.188354 92.944168,269.797577 114.183167,245.551315 
	C114.390305,245.314880 114.744118,245.206909 115.474472,245.331146 
	C143.271576,275.411072 174.588104,300.332642 209.362259,320.841766 
	C248.212555,343.754883 289.796692,359.825806 333.949951,369.171295 
	C333.669067,371.116394 333.701691,373.171906 333.061340,374.990417 
	C318.541290,416.226959 297.834778,454.050354 270.392761,488.133850 
	C267.065002,492.266937 263.658173,496.336365 260.157166,500.744873 
	C258.503326,501.218567 256.824158,501.888367 255.480072,501.473206 
	C216.324295,489.379974 180.736801,470.473785 148.687668,444.966370 
	C109.289879,413.610229 79.006111,374.966858 57.049004,329.349548 
z"/>
<path fill="#000000" opacity="1.000000" stroke="none" 
	d="
M334.287292,368.990234 
	C289.796692,359.825806 248.212555,343.754883 209.362259,320.841766 
	C174.588104,300.332642 143.271576,275.411072 115.801453,245.290878 
	C151.202545,204.233307 193.501572,172.412720 242.091324,148.907043 
	C269.890594,135.458923 298.994568,125.736366 329.108704,118.989830 
	C329.749054,118.846375 330.434692,118.905045 331.494690,118.752579 
	C335.210205,128.556244 339.125275,138.323395 341.729065,148.428452 
	C347.541351,170.985184 351.666443,193.851135 353.177765,217.183746 
	C354.718079,240.963791 354.623413,264.647308 352.153900,288.370575 
	C349.292297,315.860229 343.698364,342.700134 334.287292,368.990234 
z"/>
</svg>